<svg width="26" height="27" viewBox="0 0 26 27" fill="none" xmlns="http://www.w3.org/2000/svg">
<path d="M3.88056 15.462C4.78591 11.1639 8.57059 8.11 12.8279 8.11C17.0838 8.11 20.8685 11.1639 21.7752 15.462C21.8111 15.6326 21.914 15.782 22.0614 15.8775C22.2088 15.973 22.3885 16.0067 22.561 15.9712C22.7336 15.9357 22.8847 15.8339 22.9813 15.6882C23.0779 15.5425 23.112 15.3649 23.0761 15.1943C22.0446 10.3056 17.7303 6.79761 12.8279 6.79761C7.92543 6.79761 3.61108 10.3056 2.57962 15.1943C2.54371 15.3649 2.5778 15.5425 2.67439 15.6882C2.77099 15.8339 2.92217 15.9357 3.09469 15.9712C3.2672 16.0067 3.44692 15.973 3.5943 15.8775C3.74168 15.782 3.84465 15.6326 3.88056 15.462ZM12.8146 10.7348C14.0468 10.7348 15.2286 11.2187 16.1 12.0802C16.9713 12.9416 17.4608 14.1099 17.4608 15.3282C17.4608 16.5464 16.9713 17.7147 16.1 18.5762C15.2286 19.4376 14.0468 19.9215 12.8146 19.9215C11.5823 19.9215 10.4005 19.4376 9.52921 18.5762C8.65788 17.7147 8.16836 16.5464 8.16836 15.3282C8.16836 14.1099 8.65788 12.9416 9.52921 12.0802C10.4005 11.2187 11.5823 10.7348 12.8146 10.7348Z" fill="#949BA5"/>
</svg>
