<svg width="19" height="18" viewBox="0 0 19 18" fill="none" xmlns="http://www.w3.org/2000/svg">
<path d="M3.33988 10.2048C3.98002 7.40556 6.65606 5.41662 9.66625 5.41662C12.6755 5.41662 15.3515 7.40556 15.9926 10.2048C16.018 10.3159 16.0908 10.4132 16.195 10.4754C16.2992 10.5376 16.4263 10.5595 16.5483 10.5364C16.6703 10.5133 16.7772 10.447 16.8455 10.3521C16.9138 10.2572 16.9379 10.1415 16.9125 10.0304C16.1832 6.84657 13.1326 4.56189 9.66625 4.56189C6.19988 4.56189 3.14933 6.84657 2.42002 10.0304C2.39463 10.1415 2.41873 10.2572 2.48703 10.3521C2.55533 10.447 2.66223 10.5133 2.78421 10.5364C2.90619 10.5595 3.03326 10.5376 3.13747 10.4754C3.24168 10.4132 3.31448 10.3159 3.33988 10.2048V10.2048ZM9.65686 7.12607C10.5282 7.12607 11.3638 7.44124 11.9799 8.00227C12.596 8.56329 12.9421 9.3242 12.9421 10.1176C12.9421 10.911 12.596 11.6719 11.9799 12.2329C11.3638 12.794 10.5282 13.1091 9.65686 13.1091C8.78557 13.1091 7.94997 12.794 7.33387 12.2329C6.71777 11.6719 6.37165 10.911 6.37165 10.1176C6.37165 9.3242 6.71777 8.56329 7.33387 8.00227C7.94997 7.44124 8.78557 7.12607 9.65686 7.12607V7.12607Z" fill="#949BA5"/>
</svg>
