<svg width="19" height="18" viewBox="0 0 19 18" fill="none" xmlns="http://www.w3.org/2000/svg">
<path d="M2.88516 10.2048C3.52531 7.40556 6.20135 5.41662 9.21154 5.41662C12.2208 5.41662 14.8968 7.40556 15.5379 10.2048C15.5633 10.3159 15.6361 10.4132 15.7403 10.4754C15.8445 10.5376 15.9716 10.5595 16.0936 10.5364C16.2156 10.5133 16.3225 10.447 16.3908 10.3521C16.4591 10.2572 16.4832 10.1415 16.4578 10.0304C15.7285 6.84657 12.6779 4.56189 9.21154 4.56189C5.74517 4.56189 2.69462 6.84657 1.96531 10.0304C1.93991 10.1415 1.96402 10.2572 2.03232 10.3521C2.10062 10.447 2.20751 10.5133 2.32949 10.5364C2.45148 10.5595 2.57855 10.5376 2.68276 10.4754C2.78696 10.4132 2.85977 10.3159 2.88516 10.2048ZM9.20215 7.12607C10.0734 7.12607 10.909 7.44125 11.5251 8.00227C12.1412 8.56329 12.4874 9.3242 12.4874 10.1176C12.4874 10.911 12.1412 11.6719 11.5251 12.2329C10.909 12.794 10.0734 13.1091 9.20215 13.1091C8.33086 13.1091 7.49525 12.794 6.87916 12.2329C6.26306 11.6719 5.91694 10.911 5.91694 10.1176C5.91694 9.3242 6.26306 8.56329 6.87916 8.00227C7.49525 7.44125 8.33086 7.12607 9.20215 7.12607Z" fill="#949BA5"/>
</svg>
