<svg width="26" height="26" viewBox="0 0 26 26" fill="none" xmlns="http://www.w3.org/2000/svg">
<path d="M3.88056 14.7843C4.78591 10.4862 8.57059 7.43227 12.8279 7.43227C17.0838 7.43227 20.8685 10.4862 21.7752 14.7843C21.8111 14.9548 21.914 15.1043 22.0614 15.1998C22.2088 15.2953 22.3885 15.329 22.561 15.2935C22.7336 15.258 22.8847 15.1562 22.9813 15.0105C23.0779 14.8648 23.112 14.6871 23.0761 14.5166C22.0446 9.6279 17.7303 6.11987 12.8279 6.11987C7.92543 6.11987 3.61108 9.6279 2.57962 14.5166C2.54371 14.6871 2.5778 14.8648 2.67439 15.0105C2.77099 15.1562 2.92217 15.258 3.09469 15.2935C3.2672 15.329 3.44692 15.2953 3.5943 15.1998C3.74168 15.1043 3.84465 14.9548 3.88056 14.7843V14.7843ZM12.8146 10.0571C14.0468 10.0571 15.2286 10.541 16.1 11.4024C16.9713 12.2638 17.4608 13.4322 17.4608 14.6504C17.4608 15.8687 16.9713 17.037 16.1 17.8984C15.2286 18.7599 14.0468 19.2438 12.8146 19.2438C11.5823 19.2438 10.4005 18.7599 9.52921 17.8984C8.65788 17.037 8.16836 15.8687 8.16836 14.6504C8.16836 13.4322 8.65788 12.2638 9.52921 11.4024C10.4005 10.541 11.5823 10.0571 12.8146 10.0571V10.0571Z" fill="#949BA5"/>
</svg>
