<svg width="25" height="23" viewBox="0 0 25 23" fill="none" xmlns="http://www.w3.org/2000/svg">
<path d="M24.0103 11.5001C24.0103 5.14878 18.8615 5.53131e-05 12.5103 5.53131e-05C6.15897 5.53131e-05 1.01025 5.14878 1.01025 11.5001C1.01025 17.24 5.21564 21.9976 10.7134 22.8604V14.8243H7.79346V11.5001H10.7134V8.96646C10.7134 6.08427 12.4302 4.49224 15.0571 4.49224C16.3153 4.49224 17.6313 4.71685 17.6313 4.71685V7.54693H16.1812C14.7526 7.54693 14.3071 8.4334 14.3071 9.34284V11.5001H17.4966L16.9867 14.8243H14.3071V22.8604C19.8049 21.9976 24.0103 17.24 24.0103 11.5001Z" fill="#1877F2"/>
</svg>
