<svg width="29" height="23" viewBox="0 0 29 23" fill="none" xmlns="http://www.w3.org/2000/svg">
<path d="M9.20649 23C19.8825 23 25.7208 14.1521 25.7208 6.47956C25.7208 6.22829 25.7157 5.97816 25.7043 5.72907C26.8403 4.90677 27.8207 3.88864 28.5996 2.7224C27.5596 3.18493 26.4404 3.49623 25.2664 3.63659C26.4648 2.91778 27.3847 1.7806 27.8188 0.425098C26.6794 1.10124 25.4329 1.57788 24.1331 1.83448C23.074 0.70587 21.5661 0 19.8964 0C16.6911 0 14.0919 2.60026 14.0919 5.80549C14.0919 6.26117 14.1429 6.70427 14.2425 7.12943C9.41855 6.8866 5.14101 4.57614 2.27826 1.06295C1.76265 1.94904 1.49144 2.95611 1.49235 3.9813C1.49235 5.99576 2.517 7.77406 4.07525 8.81446C3.15352 8.7863 2.25203 8.53725 1.44658 8.08824C1.44571 8.11262 1.44571 8.13637 1.44571 8.16241C1.44571 10.9743 3.44637 13.3221 6.10218 13.8541C5.60338 13.99 5.08868 14.0587 4.5717 14.0584C4.19835 14.0584 3.83449 14.0217 3.48087 13.9538C4.2198 16.2608 6.36248 17.9396 8.90289 17.9865C6.91632 19.5441 4.41386 20.4719 1.69406 20.4719C1.23138 20.4723 0.769085 20.4454 0.30957 20.3915C2.87833 22.0385 5.92847 22.9996 9.20677 22.9996" fill="#1D9BF0"/>
</svg>
