<svg width="24" height="23" viewBox="0 0 24 23" fill="none" xmlns="http://www.w3.org/2000/svg">
<path fill-rule="evenodd" clip-rule="evenodd" d="M23.4946 11.7613C23.4946 10.9459 23.4214 10.1618 23.2855 9.40906H12.4546V13.8575H18.6437C18.3771 15.295 17.5669 16.5129 16.3489 17.3284V20.2138H20.0655C22.24 18.2118 23.4946 15.2636 23.4946 11.7613Z" fill="#4285F4"/>
<path fill-rule="evenodd" clip-rule="evenodd" d="M12.4546 22.9998C15.5596 22.9998 18.1627 21.97 20.0655 20.2137L16.3489 17.3282C15.3191 18.0182 14.0018 18.4259 12.4546 18.4259C9.45933 18.4259 6.9241 16.403 6.01978 13.6848H2.17773V16.6644C4.07001 20.4228 7.9591 22.9998 12.4546 22.9998Z" fill="#34A853"/>
<path fill-rule="evenodd" clip-rule="evenodd" d="M6.01982 13.6851C5.78982 12.9951 5.65914 12.2581 5.65914 11.5001C5.65914 10.7422 5.78982 10.0051 6.01982 9.31512V6.33557H2.17777C1.39891 7.88807 0.95459 9.64443 0.95459 11.5001C0.95459 13.3558 1.39891 15.1122 2.17777 16.6647L6.01982 13.6851Z" fill="#FBBC05"/>
<path fill-rule="evenodd" clip-rule="evenodd" d="M12.4546 4.57386C14.143 4.57386 15.6589 5.15409 16.8507 6.29364L20.1491 2.99523C18.1575 1.13955 15.5543 0 12.4546 0C7.9591 0 4.07001 2.57705 2.17773 6.33545L6.01978 9.315C6.9241 6.59682 9.45933 4.57386 12.4546 4.57386Z" fill="#EA4335"/>
</svg>
