<svg width="21" height="23" viewBox="0 0 21 23" fill="none" xmlns="http://www.w3.org/2000/svg">
<path d="M19.7351 17.924C19.3873 18.7275 18.9756 19.4672 18.4986 20.1472C17.8484 21.0743 17.316 21.716 16.9057 22.0724C16.2696 22.6573 15.5882 22.9568 14.8584 22.9739C14.3346 22.9739 13.7028 22.8248 12.9674 22.5224C12.2296 22.2214 11.5515 22.0724 10.9315 22.0724C10.2813 22.0724 9.58394 22.2214 8.83802 22.5224C8.09097 22.8248 7.48915 22.9824 7.02903 22.998C6.32925 23.0278 5.63175 22.7197 4.93552 22.0724C4.49115 21.6848 3.93534 21.0204 3.26949 20.0791C2.5551 19.0739 1.96776 17.9084 1.50763 16.5795C1.01485 15.1442 0.767822 13.7543 0.767822 12.4087C0.767822 10.8673 1.10089 9.53789 1.76801 8.42385C2.29231 7.529 2.98981 6.82312 3.86279 6.30493C4.73577 5.78674 5.67902 5.52267 6.69483 5.50578C7.25064 5.50578 7.97952 5.6777 8.8853 6.01559C9.78852 6.35462 10.3685 6.52655 10.6227 6.52655C10.8128 6.52655 11.4571 6.32552 12.5493 5.92473C13.5821 5.55305 14.4538 5.39916 15.1679 5.45978C17.103 5.61595 18.5568 6.37876 19.5236 7.75303C17.793 8.80163 16.9369 10.2703 16.9539 12.1544C16.9696 13.622 17.5019 14.8432 18.5483 15.8129C19.0225 16.2629 19.552 16.6107 20.1412 16.8578C20.0134 17.2283 19.8785 17.5832 19.7351 17.924V17.924ZM15.2971 0.460131C15.2971 1.61039 14.8769 2.68439 14.0393 3.67847C13.0284 4.86023 11.8058 5.54311 10.4799 5.43536C10.463 5.29736 10.4532 5.15213 10.4532 4.99951C10.4532 3.89526 10.9339 2.71349 11.7876 1.74724C12.2138 1.25801 12.7559 0.851218 13.4132 0.526714C14.0691 0.207053 14.6895 0.0302728 15.273 0C15.29 0.153772 15.2971 0.307554 15.2971 0.460116V0.460131Z" fill="black"/>
</svg>
